<svg preserveAspectRatio="none" width="100%" height="100%" overflow="visible" style="display: block;" viewBox="0 0 53 53" fill="none" xmlns="http://www.w3.org/2000/svg">
<rect width="53" height="53" rx="8" fill="#EA5414"/>
<g id="Icon">
<path id="Vector" d="M40.3346 30.7V22.3C40.3346 15.3 37.5676 12.5 30.6503 12.5H22.3496C15.4323 12.5 12.6654 15.3 12.6654 22.3V30.7C12.6654 37.7 15.4323 40.5 22.3496 40.5H30.6503C37.5676 40.5 40.3346 37.7 40.3346 30.7Z" stroke="var(--stroke-0, white)" stroke-width="1.90321" stroke-linecap="round" stroke-linejoin="round"/>
<path id="Vector_2" d="M18.375 18.2096H24.4923V23.9193H18.375V18.2096Z" stroke="var(--stroke-0, white)" stroke-width="1.90321" stroke-miterlimit="10" stroke-linecap="round" stroke-linejoin="round"/>
<path id="Vector_3" d="M21.7395 35.3386C19.8815 35.3386 18.375 33.7763 18.375 31.8493C18.375 29.9224 19.8815 28.3601 21.7395 28.3601C23.5975 28.3601 25.104 29.9224 25.104 31.8493C25.104 33.7763 23.5975 35.3386 21.7395 35.3386Z" stroke="var(--stroke-0, white)" stroke-width="1.90321" stroke-miterlimit="10"/>
<path id="Vector_4" d="M35.5039 23.9193H29.3866L32.4452 18.2096L35.5039 23.9193Z" stroke="var(--stroke-0, white)" stroke-width="1.90321" stroke-miterlimit="10" stroke-linecap="round" stroke-linejoin="round"/>
<path id="Vector_5" d="M32.1393 27.7257L28.7748 31.0563L30.06 35.3385H34.2187L35.5038 31.0563L32.1393 27.7257Z" stroke="var(--stroke-0, white)" stroke-width="1.90321" stroke-miterlimit="10" stroke-linecap="round" stroke-linejoin="round"/>
</g>
</svg>
