<svg width="53" height="53" viewBox="0 0 53 53" fill="none" xmlns="http://www.w3.org/2000/svg">
<rect width="53" height="53" rx="8" fill="white"/>
<mask id="path-2-inside-1_59_232" fill="white">
<path d="M0 20C0 8.95431 8.95431 0 20 0H33C44.0457 0 53 8.95431 53 20V33C53 44.0457 44.0457 53 33 53H20C8.95431 53 0 44.0457 0 33V20Z"/>
</mask>
<path d="M20 0V0.666667H33V0V-0.666667H20V0ZM53 20H52.3333V33H53H53.6667V20H53ZM33 53V52.3333H20V53V53.6667H33V53ZM0 33H0.666667V20H0H-0.666667V33H0ZM20 53V52.3333C9.3225 52.3333 0.666667 43.6775 0.666667 33H0H-0.666667C-0.666667 44.4139 8.58612 53.6667 20 53.6667V53ZM53 33H52.3333C52.3333 43.6775 43.6775 52.3333 33 52.3333V53V53.6667C44.4139 53.6667 53.6667 44.4139 53.6667 33H53ZM33 0V0.666667C43.6775 0.666667 52.3333 9.3225 52.3333 20H53H53.6667C53.6667 8.58612 44.4139 -0.666667 33 -0.666667V0ZM20 0V-0.666667C8.58612 -0.666667 -0.666667 8.58612 -0.666667 20H0H0.666667C0.666667 9.3225 9.3225 0.666667 20 0.666667V0Z" fill="white" mask="url(#path-2-inside-1_59_232)"/>
<path fill-rule="evenodd" clip-rule="evenodd" d="M32.2253 23.2753C35.7535 23.2753 38.5453 26.0326 38.5453 29.3416C38.5453 32.6506 35.7535 35.4078 32.2253 35.4078H20.1498C19.472 35.4078 18.9225 35.9573 18.9225 36.6351C18.9225 37.3129 19.472 37.8624 20.1498 37.8624H32.2253C37.0293 37.8624 40.9998 34.0846 40.9998 29.3416C40.9998 24.5985 37.0293 20.8208 32.2253 20.8208H15.6215C14.9437 20.8208 14.3942 21.3703 14.3942 22.0481C14.3942 22.7259 14.9437 23.2753 15.6215 23.2753H32.2253Z" fill="#44403F"/>
<path fill-rule="evenodd" clip-rule="evenodd" d="M19.9739 17.3744C19.5028 16.887 18.7259 16.8737 18.2385 17.3448L14.3743 21.079C14.135 21.3103 13.9999 21.6288 13.9999 21.9615C13.9999 22.2943 14.135 22.6128 14.3743 22.844L18.2385 26.5783C18.7259 27.0493 19.5028 27.0361 19.9739 26.5487C20.4449 26.0613 20.4316 25.2843 19.9442 24.8133L16.9932 21.9615L19.9442 19.1098C20.4316 18.6388 20.4449 17.8618 19.9739 17.3744Z" fill="#44403F"/>
</svg>
