<svg width="53" height="53" viewBox="0 0 53 53" fill="none" xmlns="http://www.w3.org/2000/svg">
<rect width="53" height="53" rx="8" fill="#EA5414"/>
<path fill-rule="evenodd" clip-rule="evenodd" d="M31.566 23.2753C35.0942 23.2753 37.886 26.0326 37.886 29.3416C37.886 32.6506 35.0942 35.4078 31.566 35.4078H19.4905C18.8127 35.4078 18.2632 35.9573 18.2632 36.6351C18.2632 37.3129 18.8127 37.8624 19.4905 37.8624H31.566C36.37 37.8624 40.3405 34.0846 40.3405 29.3416C40.3405 24.5985 36.37 20.8208 31.566 20.8208H14.9622C14.2844 20.8208 13.7349 21.3703 13.7349 22.0481C13.7349 22.7259 14.2844 23.2753 14.9622 23.2753H31.566Z" fill="white"/>
<path fill-rule="evenodd" clip-rule="evenodd" d="M19.3146 17.3744C18.8435 16.887 18.0666 16.8737 17.5792 17.3448L13.715 21.079C13.4757 21.3103 13.3406 21.6288 13.3406 21.9615C13.3406 22.2943 13.4757 22.6128 13.715 22.844L17.5792 26.5783C18.0666 27.0493 18.8435 27.0361 19.3146 26.5487C19.7856 26.0613 19.7723 25.2843 19.2849 24.8133L16.3339 21.9615L19.2849 19.1098C19.7723 18.6388 19.7856 17.8618 19.3146 17.3744Z" fill="white"/>
</svg>
