<svg preserveAspectRatio="none" width="100%" height="100%" overflow="visible" style="display: block;" viewBox="0 0 53 53" fill="none" xmlns="http://www.w3.org/2000/svg">
<rect width="53" height="53" rx="8" fill="#EA5414"/>
<g id="Icon">
<path id="Vector" d="M16.9773 13.5436C16.9773 14.0935 16.5107 14.5872 15.875 14.5872C15.2393 14.5872 14.7727 14.0935 14.7727 13.5436C14.7727 12.9937 15.2393 12.5 15.875 12.5C16.5107 12.5 16.9773 12.9937 16.9773 13.5436Z" stroke="var(--stroke-0, white)" stroke-width="2"/>
<path id="Vector_2" d="M22.2919 13.5436C22.2919 14.0935 21.8252 14.5872 21.1896 14.5872C20.5539 14.5872 20.0873 14.0935 20.0873 13.5436C20.0873 12.9937 20.5539 12.5 21.1896 12.5C21.8252 12.5 22.2919 12.9937 22.2919 13.5436Z" stroke="var(--stroke-0, white)" stroke-width="2"/>
<path id="Vector_3" d="M27.5981 13.5436C27.5981 14.0935 27.1314 14.5872 26.4958 14.5872C25.8601 14.5872 25.3935 14.0935 25.3935 13.5436C25.3935 12.9937 25.8601 12.5 26.4958 12.5C27.1314 12.5 27.5981 12.9937 27.5981 13.5436Z" stroke="var(--stroke-0, white)" stroke-width="2"/>
<path id="Vector_4" d="M27.5981 18.8324C27.5981 19.3823 27.1314 19.876 26.4958 19.876C25.8601 19.876 25.3935 19.3823 25.3935 18.8324C25.3935 18.2826 25.8601 17.7888 26.4958 17.7888C27.1314 17.7888 27.5981 18.2826 27.5981 18.8324Z" stroke="var(--stroke-0, white)" stroke-width="2"/>
<path id="Vector_5" d="M27.5981 23.9823C27.5981 24.5322 27.1314 25.0259 26.4958 25.0259C25.8601 25.0259 25.3935 24.5322 25.3935 23.9823C25.3935 23.4325 25.8601 22.9387 26.4958 22.9387C27.1314 22.9387 27.5981 23.4325 27.5981 23.9823Z" stroke="var(--stroke-0, white)" stroke-width="2"/>
<path id="Vector_6" d="M27.5981 29.1403C27.5981 29.6901 27.1314 30.1839 26.4958 30.1839C25.8601 30.1839 25.3935 29.6901 25.3935 29.1403C25.3935 28.5904 25.8601 28.0967 26.4958 28.0967C27.1314 28.0967 27.5981 28.5904 27.5981 29.1403Z" stroke="var(--stroke-0, white)" stroke-width="2"/>
<path id="Vector_7" d="M27.5981 34.2985C27.5981 34.8483 27.1314 35.3421 26.4958 35.3421C25.8601 35.3421 25.3935 34.8483 25.3935 34.2985C25.3935 33.7486 25.8601 33.2549 26.4958 33.2549C27.1314 33.2549 27.5981 33.7486 27.5981 34.2985Z" stroke="var(--stroke-0, white)" stroke-width="2"/>
<path id="Vector_8" d="M27.5981 39.4564C27.5981 40.0063 27.1314 40.5 26.4958 40.5C25.8601 40.5 25.3935 40.0063 25.3935 39.4564C25.3935 38.9066 25.8601 38.4128 26.4958 38.4128C27.1314 38.4128 27.5981 38.9066 27.5981 39.4564Z" stroke="var(--stroke-0, white)" stroke-width="2"/>
<path id="Vector_9" d="M32.9211 13.5436C32.9211 14.0935 32.4544 14.5872 31.8188 14.5872C31.1831 14.5872 30.7165 14.0935 30.7165 13.5436C30.7165 12.9937 31.1831 12.5 31.8188 12.5C32.4544 12.5 32.9211 12.9937 32.9211 13.5436Z" stroke="var(--stroke-0, white)" stroke-width="2"/>
<path id="Vector_10" d="M38.2273 13.5436C38.2273 14.0935 37.7606 14.5872 37.125 14.5872C36.4893 14.5872 36.0227 14.0935 36.0227 13.5436C36.0227 12.9937 36.4893 12.5 37.125 12.5C37.7606 12.5 38.2273 12.9937 38.2273 13.5436Z" stroke="var(--stroke-0, white)" stroke-width="2"/>
</g>
</svg>
