<svg preserveAspectRatio="none" width="100%" height="100%" overflow="visible" style="display: block;" viewBox="0 0 53 53" fill="none" xmlns="http://www.w3.org/2000/svg">
<rect width="53" height="53" rx="8" fill="#EA5414"/>
<g id="Icon">
<path id="Vector" d="M28.3168 17.1914C28.071 17.1914 27.87 17.366 27.87 17.5793V35.4207C27.87 35.634 28.071 35.8086 28.3168 35.8086C28.5626 35.8086 28.7636 35.634 28.7636 35.4207V17.5793C28.7636 17.366 28.5626 17.1914 28.3168 17.1914Z" fill="var(--fill-0, white)"/>
<path id="Vector_2" d="M20.2116 32.8299H15.0004V32.3553H15.0738C15.7882 32.2917 16.2335 32.1792 16.3901 32.003C16.4097 31.9835 16.4292 31.9638 16.4439 31.9492C16.5956 31.8024 16.6984 31.7046 16.6984 31.0636V21.923H15.9399C15.0151 21.923 14.1832 22.202 13.8456 22.476C13.6499 22.6277 13.6352 22.9555 13.6108 23.4057C13.596 23.6895 13.5716 24.0124 13.508 24.3696L13.4983 24.4332H12.5V20.915H22.7268V24.4332H21.7432L21.7285 24.3696C21.6551 24.0124 21.621 23.6895 21.5867 23.4057C21.5426 22.9702 21.5035 22.6179 21.3323 22.4613C21.0337 22.197 20.2704 21.9133 19.2917 21.9133H18.5382V31.0586C18.5382 31.7046 18.6312 31.8954 18.8171 32.0324C18.9591 32.1351 19.2966 32.277 20.1432 32.3358H20.2166V32.8202H20.2116V32.8299Z" fill="var(--fill-0, white)"/>
<path id="Vector_3" d="M34.5427 23.298C35.1987 23.298 35.7341 22.7626 35.7341 22.1066C35.7341 21.4504 35.1987 20.915 34.5427 20.915C33.8865 20.915 33.3511 21.4504 33.3511 22.1066C33.3511 22.7626 33.8865 23.298 34.5427 23.298Z" fill="var(--fill-0, white)"/>
<path id="Vector_4" d="M34.5427 28.0637C35.1987 28.0637 35.7341 27.5283 35.7341 26.8723C35.7341 26.2161 35.1987 25.6807 34.5427 25.6807C33.8865 25.6807 33.3511 26.2161 33.3511 26.8723C33.3511 27.5283 33.8865 28.0637 34.5427 28.0637Z" fill="var(--fill-0, white)"/>
<path id="Vector_5" d="M34.5427 32.8299C35.1987 32.8299 35.7341 32.2944 35.7341 31.6383C35.7341 30.9823 35.1987 30.4469 34.5427 30.4469C33.8865 30.4469 33.3511 30.9823 33.3511 31.6383C33.3511 32.2944 33.8865 32.8299 34.5427 32.8299Z" fill="var(--fill-0, white)"/>
<path id="Vector_6" d="M39.3085 23.298C39.9646 23.298 40.5 22.7626 40.5 22.1066C40.5 21.4504 39.9646 20.915 39.3085 20.915C38.6524 20.915 38.117 21.4504 38.117 22.1066C38.117 22.7626 38.6524 23.298 39.3085 23.298Z" fill="var(--fill-0, white)"/>
<path id="Vector_7" d="M39.3085 28.0637C39.9646 28.0637 40.5 27.5283 40.5 26.8723C40.5 26.2161 39.9646 25.6807 39.3085 25.6807C38.6524 25.6807 38.117 26.2161 38.117 26.8723C38.117 27.5283 38.6524 28.0637 39.3085 28.0637Z" fill="var(--fill-0, white)"/>
<path id="Vector_8" d="M39.3085 32.8299C39.9646 32.8299 40.5 32.2944 40.5 31.6383C40.5 30.9823 39.9646 30.4469 39.3085 30.4469C38.6524 30.4469 38.117 30.9823 38.117 31.6383C38.117 32.2944 38.6524 32.8299 39.3085 32.8299Z" fill="var(--fill-0, white)"/>
</g>
</svg>
