<svg preserveAspectRatio="none" width="100%" height="100%" overflow="visible" style="display: block;" viewBox="0 0 53 53" fill="none" xmlns="http://www.w3.org/2000/svg">
<rect width="53" height="53" rx="8" fill="white"/>
<g id="Icon">
<path id="Vector" d="M40.3346 30.7V22.3C40.3346 15.3 37.5676 12.5 30.6503 12.5H22.3496C15.4323 12.5 12.6654 15.3 12.6654 22.3V30.7C12.6654 37.7 15.4323 40.5 22.3496 40.5H30.6503C37.5676 40.5 40.3346 37.7 40.3346 30.7Z" stroke="var(--stroke-0, black)" stroke-width="1.90321" stroke-linecap="round" stroke-linejoin="round"/>
<path id="Vector_2" d="M32.1733 27.0912H30.9838C30.7648 27.0912 30.5872 26.9138 30.5872 26.6948C30.5872 26.4757 30.7648 26.2983 30.9838 26.2983H32.1733V21.1437C32.1733 20.4868 31.6408 19.9542 30.9838 19.9542H30.1908C29.9717 19.9542 29.7943 19.7767 29.7943 19.5578C29.7943 19.3387 29.9717 19.1612 30.1908 19.1612H30.9838C31.6323 19.1612 32.2081 19.4726 32.5698 19.954C32.9315 19.4726 33.5072 19.1612 34.1558 19.1612H34.9488C35.1678 19.1612 35.3453 19.3387 35.3453 19.5578C35.3453 19.7767 35.1678 19.9542 34.9488 19.9542H34.1558C33.4989 19.9542 32.9662 20.4868 32.9662 21.1437V26.2983H34.1558C34.3748 26.2983 34.5523 26.4757 34.5523 26.6948C34.5523 26.9138 34.3748 27.0912 34.1558 27.0912H32.9662V32.2458C32.9662 32.9028 33.4989 33.4353 34.1558 33.4353H34.9488C35.1678 33.4353 35.3453 33.6128 35.3453 33.8318C35.3453 34.0508 35.1678 34.2283 34.9488 34.2283H34.1558C33.5072 34.2283 32.9315 33.9169 32.5698 33.4355C32.2081 33.9169 31.6323 34.2283 30.9838 34.2283H30.1908C29.9717 34.2283 29.7943 34.0508 29.7943 33.8318C29.7943 33.6128 29.9717 33.4353 30.1908 33.4353H30.9838C31.6408 33.4353 32.1733 32.9028 32.1733 32.2458V27.0912Z" fill="var(--fill-0, black)"/>
<path id="Vector_3" d="M19.8024 22.4918C20.5884 22.4918 21.2298 21.8504 21.2298 21.0644C21.2298 20.2785 20.5884 19.637 19.8024 19.637C19.0165 19.637 18.375 20.2785 18.375 21.0644C18.375 21.8504 19.0165 22.4918 19.8024 22.4918Z" fill="var(--fill-0, black)"/>
<path id="Vector_4" d="M20.0403 27.7257C20.4333 27.7257 20.754 27.405 20.754 27.012C20.754 26.619 20.4333 26.2983 20.0403 26.2983C19.6473 26.2983 19.3266 26.619 19.3266 27.012C19.3266 27.405 19.6473 27.7257 20.0403 27.7257Z" fill="var(--fill-0, black)"/>
<path id="Vector_5" d="M19.8024 33.9111C20.5884 33.9111 21.2298 33.2696 21.2298 32.4837C21.2298 31.6978 20.5884 31.0563 19.8024 31.0563C19.0165 31.0563 18.375 31.6978 18.375 32.4837C18.375 33.2696 19.0165 33.9111 19.8024 33.9111Z" fill="var(--fill-0, black)"/>
<path id="Vector_6" d="M25.7499 22.016C26.143 22.016 26.4636 21.6954 26.4636 21.3023C26.4636 20.9093 26.143 20.5886 25.7499 20.5886C25.3569 20.5886 25.0362 20.9093 25.0362 21.3023C25.0362 21.6954 25.3569 22.016 25.7499 22.016Z" fill="var(--fill-0, black)"/>
<path id="Vector_7" d="M25.512 28.2015C26.2981 28.2015 26.9395 27.56 26.9395 26.7741C26.9395 25.9881 26.2981 25.3467 25.512 25.3467C24.7261 25.3467 24.0846 25.9881 24.0846 26.7741C24.0846 27.56 24.7261 28.2015 25.512 28.2015Z" fill="var(--fill-0, black)"/>
<path id="Vector_8" d="M25.7499 33.4353C26.143 33.4353 26.4636 33.1146 26.4636 32.7216C26.4636 32.3286 26.143 32.0079 25.7499 32.0079C25.3569 32.0079 25.0362 32.3286 25.0362 32.7216C25.0362 33.1146 25.3569 33.4353 25.7499 33.4353Z" fill="var(--fill-0, black)"/>
</g>
</svg>
