<svg preserveAspectRatio="none" width="100%" height="100%" overflow="visible" style="display: block;" viewBox="0 0 53 53" fill="none" xmlns="http://www.w3.org/2000/svg">
<rect width="53" height="53" rx="8" fill="#EA5414"/>
<g id="Icon">
<path id="Vector" d="M22.3298 40.5H39.0107M19.7164 22.4525L30.4895 33.3203M14.7122 34.4141L22.5661 26.4771M18.6322 38.3826L26.5 30.4456M13.8642 34.3019L18.7434 39.2239C19.5253 40.0117 20.5852 40.4543 21.6903 40.4543C22.7955 40.4543 23.8554 40.0117 24.6373 39.2239L39.1358 24.598C39.9168 23.8092 40.3554 22.74 40.3554 21.6252C40.3554 20.5104 39.9168 19.4411 39.1358 18.6524L34.2567 13.7303C33.4747 12.9425 32.4148 12.5 31.3097 12.5C30.2046 12.5 29.1446 12.9425 28.3627 13.7303L13.8642 28.3562C13.0833 29.145 12.6446 30.2143 12.6446 31.3291C12.6446 32.4438 13.0833 33.5131 13.8642 34.3019Z" stroke="var(--stroke-0, white)" stroke-width="2.00609" stroke-linecap="round" stroke-linejoin="round"/>
</g>
</svg>
