<svg xmlns="http://www.w3.org/2000/svg" viewBox="233.72 405.31 30 30" fill="#EC5927"><g fill-rule="evenodd"><path d="M252.57,417.18h5.96c-.51-1.58-1.39-2.99-2.53-4.13-1.88-1.89-4.49-3.05-7.37-3.05-.87,0-1.72.11-2.53.31v.4c.34,3.4,3.06,6.13,6.47,6.47Z"/><path d="M239.85,419.07c-.47-.17-.97-.3-1.48-.36h-2.23v.77h2.11c-.03.31-.05.63-.05.95,0,4.33,2.64,8.04,6.4,9.62v-4.83c-.26-2.83-2.16-5.2-4.75-6.14Z"/><path d="M243.84,411.16c-.96.49-1.83,1.13-2.58,1.89-1.13,1.13-1.99,2.5-2.51,4.04,2.22-.42,4.09-1.86,5.09-3.81.39-.75.65-1.59.75-2.47l.02-3.2h-.77v3.55Z"/><path d="M257.88,418.68h-5.3c-3.41.34-6.13,3.07-6.47,6.47v7.85h.76v-2.3c.57.09,1.17.15,1.77.15,2.88,0,5.49-1.17,7.37-3.05,1.89-1.89,3.05-4.49,3.05-7.37,0-.33-.01-.65-.05-.98h2.29v-.77h-3.42Z"/></g></svg>
