<svg xmlns="http://www.w3.org/2000/svg" viewBox="232 405 126 30" fill="#1E1C1A">
<polygon points="267.67 417.56 270.36 417.56 270.36 424.37 272.3 424.37 272.3 417.56 274.99 417.56 274.99 415.97 267.67 415.97 267.67 417.56"></polygon>
<path d="M278.18,417.82c-.51,0-1.02.07-1.51.2-.5.14-.92.33-1.27.58l.67,1.31c.23-.18.51-.33.85-.44.33-.11.67-.16,1.01-.16.5,0,.88.11,1.12.34.24.22.37.54.37.94h-1.49c-.66,0-1.19.08-1.6.25-.41.16-.71.39-.89.68s-.28.62-.28,1.01.1.7.29,1,.47.53.83.7.79.26,1.3.26c.57,0,1.03-.11,1.39-.32.26-.15.43-.37.58-.63v.86h1.75v-3.68c0-.98-.27-1.71-.82-2.17-.54-.46-1.31-.7-2.29-.7ZM278.88,422.99c-.25.15-.53.22-.84.22-.33,0-.59-.07-.77-.21s-.28-.33-.28-.57c0-.22.08-.4.25-.54.16-.14.47-.22.91-.22h1.28v.66c-.11.29-.29.51-.54.65Z"></path>
<path d="M285.28,419.57c.26-.14.54-.22.86-.22.3,0,.57.07.82.22.25.14.46.37.63.67l1.45-.78c-.24-.53-.61-.93-1.12-1.22-.5-.28-1.1-.43-1.78-.43s-1.32.14-1.86.43-.97.68-1.28,1.18c-.31.5-.46,1.07-.46,1.72s.15,1.21.46,1.72c.31.5.73.9,1.28,1.18s1.16.43,1.86.43,1.27-.14,1.78-.43c.5-.28.88-.69,1.12-1.21l-1.45-.79c-.17.31-.38.54-.63.68-.25.14-.53.21-.82.21-.32,0-.61-.07-.86-.22-.26-.14-.46-.35-.61-.61-.15-.26-.22-.58-.22-.96s.07-.7.22-.96c.15-.26.35-.47.61-.61Z"></path>
<path d="M293.12,422.98c-.25,0-.44-.07-.59-.22-.14-.15-.22-.36-.22-.63v-2.77h1.61v-1.44h-1.61v-1.43h-1.87v1.43h-1v1.44h1v2.8c0,.77.21,1.35.64,1.73.42.39,1.02.58,1.78.58.29,0,.57-.03.83-.1.27-.07.5-.17.69-.31l-.5-1.32c-.21.16-.46.24-.76.24Z"></path>
<rect x="295.44" y="417.92" width="1.87" height="6.46"></rect>
<rect x="295.44" y="415.47" width="1.87" height="1.7"></rect>
<rect x="343.05" y="415.47" width="1.87" height="1.7"></rect>
<rect x="299.05" y="415.47" width="1.87" height="8.9"></rect>
<path d="M307.34,418.22c-.51-.27-1.08-.4-1.71-.4s-1.24.14-1.76.43c-.52.28-.93.68-1.23,1.18s-.45,1.07-.45,1.72.15,1.21.46,1.71c.3.5.73.89,1.29,1.18.56.29,1.2.43,1.94.43.58,0,1.1-.09,1.55-.27.45-.18.82-.44,1.12-.77l-1-1.08c-.22.21-.45.36-.71.47-.26.1-.56.16-.91.16-.38,0-.72-.07-1-.21-.28-.14-.5-.34-.66-.61-.08-.15-.14-.3-.18-.47h4.88c0-.08.02-.17.02-.26s.01-.17.01-.25c0-.7-.15-1.29-.44-1.79-.3-.5-.7-.88-1.21-1.15ZM304.79,419.45c.24-.14.53-.21.85-.21s.6.07.84.21.43.33.56.58c.09.16.14.35.17.55h-3.16c.03-.2.08-.38.17-.55.14-.25.33-.45.57-.59Z"></path>
<path d="M319.12,420.12c-.29-.18-.61-.32-.95-.42-.35-.1-.7-.2-1.04-.28-.35-.08-.67-.16-.95-.24s-.52-.19-.7-.32c-.18-.13-.26-.31-.26-.52,0-.18.05-.35.16-.49.1-.14.28-.25.52-.34.24-.09.55-.13.92-.13s.76.05,1.15.16c.39.11.78.27,1.18.5l.6-1.48c-.39-.25-.84-.43-1.36-.56-.51-.12-1.03-.19-1.56-.19-.79,0-1.45.12-1.97.35-.52.24-.92.55-1.18.95-.26.4-.39.83-.39,1.31,0,.45.09.82.27,1.1.18.29.41.52.7.7s.61.32.95.43c.35.11.7.21,1.04.28s.67.16.95.24.52.19.7.32c.18.13.26.31.26.53,0,.18-.06.33-.17.47-.11.14-.29.24-.52.32-.24.08-.55.11-.93.11-.5,0-1-.08-1.49-.25-.49-.16-.92-.37-1.28-.63l-.66,1.46c.38.29.87.52,1.49.7.62.18,1.26.27,1.93.27.8,0,1.46-.12,1.99-.36.52-.24.92-.56,1.18-.95.26-.39.4-.82.4-1.3,0-.44-.09-.8-.27-1.09s-.41-.52-.7-.7Z"></path>
<path d="M324.19,422.98c-.25,0-.44-.07-.59-.22-.14-.15-.22-.36-.22-.63v-2.77h1.61v-1.44h-1.61v-1.43h-1.87v1.43h-1v1.44h1v2.8c0,.77.21,1.35.64,1.73.42.39,1.02.58,1.78.58.29,0,.57-.03.83-.1.27-.07.5-.17.69-.31l-.5-1.32c-.21.16-.46.24-.76.24Z"></path>
<path d="M331.14,421.11c0,.39-.06.72-.19.98-.13.26-.3.45-.53.58-.22.12-.48.19-.77.19-.42,0-.74-.13-.97-.38-.23-.25-.34-.65-.34-1.18v-3.37h-1.87v3.65c0,.66.12,1.21.35,1.64.23.43.56.75.98.95s.9.31,1.43.31c.5,0,.95-.11,1.37-.34.25-.14.45-.32.63-.54v.78h1.78v-6.46h-1.87v3.19Z"></path>
<path d="M339.46,418.6c-.15-.16-.31-.31-.5-.42-.41-.24-.88-.36-1.43-.36-.61,0-1.16.14-1.64.41-.49.27-.87.66-1.16,1.15s-.43,1.08-.43,1.76.14,1.26.43,1.75.67.88,1.16,1.16c.49.28,1.04.41,1.64.41.57,0,1.05-.12,1.46-.36.21-.13.4-.29.56-.49v.76h1.79v-8.9h-1.87v3.13ZM339.27,422.1c-.15.27-.35.47-.59.62-.25.14-.52.22-.83.22s-.59-.07-.84-.22c-.25-.14-.45-.35-.59-.62-.15-.27-.22-.59-.22-.95s.07-.7.22-.96c.15-.26.35-.47.59-.61.25-.14.53-.22.84-.22s.58.07.83.22c.25.14.45.35.59.61.15.26.22.58.22.96s-.07.69-.22.95Z"></path>
<rect x="343.05" y="417.92" width="1.87" height="6.46"></rect>
<path d="M352.82,419.42c-.3-.5-.72-.89-1.26-1.17s-1.14-.43-1.82-.43-1.3.14-1.83.43c-.53.28-.95.68-1.26,1.18-.31.5-.46,1.07-.46,1.72s.15,1.21.46,1.71c.31.5.73.89,1.26,1.18.53.29,1.14.43,1.83.43s1.29-.14,1.82-.43.96-.68,1.26-1.18c.3-.5.46-1.07.46-1.71s-.15-1.23-.46-1.73ZM351.17,422.1c-.14.27-.34.47-.59.62-.25.14-.53.22-.84.22s-.59-.07-.84-.22c-.25-.14-.45-.35-.59-.62-.15-.27-.22-.59-.22-.95s.07-.7.22-.96c.15-.26.35-.47.59-.61.25-.14.53-.22.84-.22s.59.07.84.22c.25.14.44.35.59.61.14.26.22.58.22.96s-.07.69-.22.95Z"></path>
<path d="M252.57,417.18h5.96c-.51-1.58-1.39-2.99-2.53-4.13-1.88-1.89-4.49-3.05-7.37-3.05-.87,0-1.72.11-2.53.31v.4c.34,3.4,3.06,6.13,6.47,6.47Z" fill="#EC5927"></path>
<path d="M239.85,419.07c-.47-.17-.97-.3-1.48-.36h-2.23v.77h2.11c-.03.31-.05.63-.05.95,0,4.33,2.64,8.04,6.4,9.62v-4.83c-.26-2.83-2.16-5.2-4.75-6.14Z" fill="#EC5927"></path>
<path d="M243.84,411.16c-.96.49-1.83,1.13-2.58,1.89-1.13,1.13-1.99,2.5-2.51,4.04,2.22-.42,4.09-1.86,5.09-3.81.39-.75.65-1.59.75-2.47l.02-3.2h-.77v3.55Z" fill="#EC5927"></path>
<path d="M257.88,418.68h-5.3c-3.41.34-6.13,3.07-6.47,6.47v7.85h.76v-2.3c.57.09,1.17.15,1.77.15,2.88,0,5.49-1.17,7.37-3.05,1.89-1.89,3.05-4.49,3.05-7.37,0-.33-.01-.65-.05-.98h2.29v-.77h-3.42Z" fill="#EC5927"></path>
</svg>