<svg preserveAspectRatio="none" width="100%" height="100%" overflow="visible" style="display: block;" viewBox="0 0 53 53" fill="none" xmlns="http://www.w3.org/2000/svg">
<rect width="53" height="53" rx="8" fill="#EA5414"/>
<g id="Icon">
<path id="Vector" d="M18.4243 40.5H19.9973L20.5514 38.927H23.1928L23.7271 40.5H25.3396L22.6982 33.4363H21.1054L18.4243 40.5ZM21.877 35.1775H21.8968L22.7872 37.7695H20.957L21.877 35.1775ZM25.652 40.5H30.648V39.1941H27.2052V33.4363H25.652V40.5ZM31.2196 40.5H36.2156V39.1941H32.7728V33.4363H31.2196V40.5Z" fill="var(--fill-0, white)"/>
<path id="Vector_2" d="M22.9086 30.2053H33.4565M21.2561 18.7933L28.0682 25.6653M18.0917 26.3569L23.058 21.3382M20.5705 28.8663L25.5456 23.8475M17.5555 26.286L20.6408 29.3984C21.1352 29.8965 21.8054 30.1763 22.5042 30.1763C23.203 30.1763 23.8733 29.8965 24.3677 29.3984L33.5355 20.15C34.0293 19.6512 34.3068 18.9751 34.3068 18.2701C34.3068 17.5652 34.0293 16.8891 33.5355 16.3903L30.4503 13.278C29.9558 12.7798 29.2857 12.5 28.5869 12.5C27.888 12.5 27.2178 12.7798 26.7234 13.278L17.5555 22.5264C17.0617 23.0252 16.7843 23.7013 16.7843 24.4062C16.7843 25.1111 17.0617 25.7872 17.5555 26.286Z" stroke="var(--stroke-0, white)" stroke-width="1.48397" stroke-linecap="round" stroke-linejoin="round"/>
</g>
</svg>
