<svg preserveAspectRatio="none" width="100%" height="100%" overflow="visible" style="display: block;" viewBox="0 0 53 53" fill="none" xmlns="http://www.w3.org/2000/svg">
<rect width="53" height="53" rx="8" fill="white"/>
<g id="Icon">
<path id="Vector" d="M40.3554 31.4H12.6861M40.3139 30.7V22.3C40.3139 15.3 37.5469 12.5 30.6296 12.5H22.3288C15.4116 12.5 12.6446 15.3 12.6446 22.3V30.7C12.6446 37.7 15.4116 40.5 22.3288 40.5H30.6296C37.5469 40.5 40.3139 37.7 40.3139 30.7Z" stroke="var(--stroke-0, black)" stroke-width="1.90321" stroke-linecap="round" stroke-linejoin="round"/>
<path id="Vector_2" d="M30.4081 34.0384L26.5003 37.6282L22.5923 34.0384" stroke="var(--stroke-0, black)" stroke-width="1.90321" stroke-linecap="round" stroke-linejoin="round"/>
<path id="Vector_3" d="M17.683 25.441H19.3046V19.5372H17.683V25.441ZM19.3046 17.2876H17.683V18.6237H19.3046V17.2876ZM20.2845 25.441H21.906V22.0152C21.906 21.7487 21.9441 21.5242 22.0202 21.3415C22.104 21.1587 22.2029 21.0179 22.3171 20.9189C22.4313 20.82 22.5493 20.7515 22.6711 20.7134C22.7929 20.6753 22.9033 20.6563 23.0023 20.6563C23.2307 20.6563 23.4096 20.6944 23.539 20.7705C23.676 20.8466 23.775 20.9494 23.8359 21.0788C23.9044 21.2082 23.9463 21.3529 23.9615 21.5127C23.9767 21.6726 23.9843 21.8782 23.9843 22.1294V25.441H25.6059V22.1522C25.6059 21.9391 25.6211 21.7487 25.6515 21.5813C25.682 21.4062 25.7353 21.2501 25.8114 21.1131C25.8875 20.976 25.9979 20.8656 26.1426 20.7819C26.2872 20.6982 26.4699 20.6563 26.6907 20.6563C26.9115 20.6563 27.0904 20.6944 27.2274 20.7705C27.3644 20.839 27.4634 20.938 27.5243 21.0674C27.5928 21.1968 27.6347 21.3415 27.6499 21.5013C27.6728 21.6612 27.6842 21.8591 27.6842 22.0951V25.441H29.3057V21.4899C29.3057 20.7591 29.1116 20.2262 28.7233 19.8912C28.3427 19.5486 27.8174 19.3774 27.1475 19.3774C26.7592 19.3774 26.4128 19.4725 26.1083 19.6628C25.8038 19.8455 25.5564 20.0777 25.3661 20.3594C25.2138 20.0244 24.9854 19.777 24.6809 19.6172C24.384 19.4573 24.0376 19.3774 23.6418 19.3774C23.2687 19.3774 22.9262 19.4611 22.614 19.6286C22.3095 19.7961 22.0507 20.0321 21.8375 20.3366H21.8147V19.5372H20.2845V25.441ZM35.9203 19.5372H34.3787V20.3252H34.3559C34.1656 19.9902 33.9257 19.7504 33.6365 19.6057C33.3472 19.4535 33.0008 19.3774 32.5973 19.3774C32.1938 19.3774 31.8322 19.4573 31.5125 19.6172C31.2004 19.7694 30.9339 19.9826 30.7131 20.2566C30.5 20.5307 30.3363 20.8428 30.2221 21.193C30.1155 21.5432 30.0622 21.9124 30.0622 22.3007C30.0622 22.7194 30.1117 23.1076 30.2107 23.4654C30.3097 23.8232 30.4619 24.1392 30.6675 24.4132C30.873 24.6797 31.1356 24.889 31.4554 25.0413C31.7827 25.1935 32.1596 25.2697 32.5859 25.2697C32.9513 25.2697 33.2939 25.1935 33.6136 25.0413C33.941 24.8814 34.1884 24.653 34.3559 24.3561H34.3787V25.1326C34.3787 25.5818 34.2683 25.9358 34.0476 26.1946C33.8344 26.4611 33.5108 26.5943 33.0769 26.5943C32.7648 26.5943 32.5021 26.5296 32.289 26.4002C32.0758 26.2784 31.935 26.0728 31.8665 25.7835H30.2564C30.2716 26.1033 30.3591 26.385 30.519 26.6286C30.6789 26.8722 30.8806 27.0701 31.1242 27.2224C31.3754 27.3746 31.6495 27.4888 31.9464 27.5649C32.2509 27.6411 32.5554 27.6791 32.86 27.6791C33.4994 27.6791 34.0247 27.5954 34.4358 27.4279C34.8545 27.2604 35.1704 27.0435 35.3836 26.777C35.5968 26.5106 35.7376 26.2327 35.8061 25.9434C35.8822 25.6541 35.9203 25.361 35.9203 25.0641V19.5372ZM32.997 24.0478C32.761 24.0478 32.5554 23.9983 32.3803 23.8994C32.2129 23.7928 32.0758 23.6558 31.9692 23.4883C31.8703 23.3208 31.798 23.1343 31.7523 22.9287C31.7066 22.7232 31.6838 22.5062 31.6838 22.2778C31.6838 21.7982 31.7942 21.3985 32.0149 21.0788C32.2357 20.7591 32.563 20.5992 32.997 20.5992C33.2482 20.5992 33.4614 20.6487 33.6365 20.7477C33.8192 20.839 33.9638 20.9684 34.0704 21.1359C34.177 21.3034 34.2531 21.4975 34.2988 21.7183C34.3521 21.9314 34.3787 22.1636 34.3787 22.4149C34.3787 22.864 34.2569 23.2485 34.0133 23.5682C33.7773 23.8879 33.4385 24.0478 32.997 24.0478Z" fill="var(--fill-0, black)"/>
</g>
</svg>
