<svg width="53" height="53" viewBox="0 0 53 53" fill="none" xmlns="http://www.w3.org/2000/svg">
<rect width="53" height="53" rx="8" fill="white"/>
<path fill-rule="evenodd" clip-rule="evenodd" d="M21.6307 23.2753C18.1026 23.2753 15.3108 26.0326 15.3108 29.3416C15.3108 32.6506 18.1026 35.4078 21.6307 35.4078H33.7063C34.3841 35.4078 34.9336 35.9573 34.9336 36.6351C34.9336 37.3129 34.3841 37.8624 33.7063 37.8624H21.6307C16.8268 37.8624 12.8563 34.0846 12.8563 29.3416C12.8563 24.5985 16.8268 20.8208 21.6307 20.8208H38.2346C38.9124 20.8208 39.4619 21.3703 39.4619 22.0481C39.4619 22.7259 38.9124 23.2753 38.2346 23.2753H21.6307Z" fill="#44403F"/>
<path fill-rule="evenodd" clip-rule="evenodd" d="M33.8822 17.3744C34.3532 16.887 35.1302 16.8737 35.6176 17.3448L39.4818 21.079C39.721 21.3103 39.8562 21.6288 39.8562 21.9615C39.8562 22.2943 39.721 22.6128 39.4818 22.844L35.6176 26.5783C35.1302 27.0493 34.3532 27.0361 33.8822 26.5487C33.4112 26.0613 33.4245 25.2843 33.9119 24.8133L36.8629 21.9615L33.9119 19.1098C33.4245 18.6388 33.4112 17.8618 33.8822 17.3744Z" fill="#44403F"/>
</svg>
