<svg width="53" height="53" viewBox="0 0 53 53" fill="none" xmlns="http://www.w3.org/2000/svg">
<rect width="53" height="53" rx="8" fill="#EA5414"/>
<path fill-rule="evenodd" clip-rule="evenodd" d="M21.434 23.2753C17.9058 23.2753 15.114 26.0326 15.114 29.3416C15.114 32.6506 17.9058 35.4078 21.434 35.4078H33.5095C34.1873 35.4078 34.7368 35.9573 34.7368 36.6351C34.7368 37.3129 34.1873 37.8624 33.5095 37.8624H21.434C16.63 37.8624 12.6595 34.0846 12.6595 29.3416C12.6595 24.5985 16.63 20.8208 21.434 20.8208H38.0378C38.7156 20.8208 39.2651 21.3703 39.2651 22.0481C39.2651 22.7259 38.7156 23.2753 38.0378 23.2753H21.434Z" fill="white"/>
<path fill-rule="evenodd" clip-rule="evenodd" d="M33.6854 17.3744C34.1565 16.887 34.9334 16.8737 35.4208 17.3448L39.285 21.079C39.5243 21.3103 39.6594 21.6288 39.6594 21.9615C39.6594 22.2943 39.5243 22.6128 39.285 22.844L35.4208 26.5783C34.9334 27.0493 34.1565 27.0361 33.6854 26.5487C33.2144 26.0613 33.2277 25.2843 33.7151 24.8133L36.6661 21.9615L33.7151 19.1098C33.2277 18.6388 33.2144 17.8618 33.6854 17.3744Z" fill="white"/>
</svg>
