<svg preserveAspectRatio="none" width="100%" height="100%" overflow="visible" style="display: block;" viewBox="0 0 53 53" fill="none" xmlns="http://www.w3.org/2000/svg">
<rect width="53" height="53" rx="8" fill="white"/>
<g id="Icon">
<path id="Vector" d="M40.3346 30.7V22.3C40.3346 15.3 37.5676 12.5 30.6503 12.5H22.3496C15.4323 12.5 12.6654 15.3 12.6654 22.3V30.7C12.6654 37.7 15.4323 40.5 22.3496 40.5H30.6503C37.5676 40.5 40.3346 37.7 40.3346 30.7Z" stroke="var(--stroke-0, black)" stroke-width="1.90321" stroke-linecap="round" stroke-linejoin="round"/>
<path id="Vector_2" d="M23.1901 20.5886H20.4876V23.5386H18.8508V25.3467H20.4876V31.1514C20.4876 31.6209 20.5637 32.0143 20.716 32.3314C20.8809 32.6359 21.103 32.877 21.3821 33.0546C21.6739 33.2196 21.9975 33.3338 22.3527 33.3972C22.7207 33.4607 23.133 33.4924 23.5898 33.4924C24.2623 33.4924 24.7888 33.4607 25.1695 33.3972V31.2847C24.9157 31.3354 24.6366 31.3608 24.3321 31.3608C23.8753 31.3608 23.5708 31.2847 23.4185 31.1324C23.2663 30.9802 23.1901 30.6756 23.1901 30.2189V25.3467H25.1695V23.5386H23.1901V20.5886Z" fill="var(--fill-0, black)"/>
<path id="Vector_3" d="M31.6975 27.0912H30.508C30.289 27.0912 30.1114 26.9138 30.1114 26.6948C30.1114 26.4757 30.289 26.2983 30.508 26.2983H31.6975V21.1437C31.6975 20.4868 31.165 19.9542 30.508 19.9542H29.715C29.4959 19.9542 29.3185 19.7767 29.3185 19.5578C29.3185 19.3387 29.4959 19.1612 29.715 19.1612H30.508C31.1565 19.1612 31.7323 19.4726 32.094 19.954C32.4557 19.4726 33.0314 19.1612 33.6799 19.1612H34.473C34.692 19.1612 34.8695 19.3387 34.8695 19.5578C34.8695 19.7767 34.692 19.9542 34.473 19.9542H33.6799C33.0231 19.9542 32.4904 20.4868 32.4904 21.1437V26.2983H33.6799C33.899 26.2983 34.0765 26.4757 34.0765 26.6948C34.0765 26.9138 33.899 27.0912 33.6799 27.0912H32.4904V32.2458C32.4904 32.9028 33.0231 33.4353 33.6799 33.4353H34.473C34.692 33.4353 34.8695 33.6128 34.8695 33.8318C34.8695 34.0508 34.692 34.2283 34.473 34.2283H33.6799C33.0314 34.2283 32.4557 33.9169 32.094 33.4355C31.7323 33.9169 31.1565 34.2283 30.508 34.2283H29.715C29.4959 34.2283 29.3185 34.0508 29.3185 33.8318C29.3185 33.6128 29.4959 33.4353 29.715 33.4353H30.508C31.165 33.4353 31.6975 32.9028 31.6975 32.2458V27.0912Z" fill="var(--fill-0, black)"/>
</g>
</svg>
