<svg preserveAspectRatio="none" width="100%" height="100%" overflow="visible" style="display: block;" viewBox="0 0 53 53" fill="none" xmlns="http://www.w3.org/2000/svg">
<rect width="53" height="53" rx="8" fill="#EA5414"/>
<g id="Icon">
<path id="Vector" d="M20.6285 41.5327V36.8386" stroke="var(--stroke-0, white)" stroke-width="1.55998" stroke-linecap="round" stroke-linejoin="round"/>
<path id="Vector_2" d="M22.5078 38.137C21.5303 37.7044 20.6987 36.9935 20.1148 36.0909C19.5309 35.1884 19.22 34.1335 19.2201 33.0552V19.144C19.2201 18.7664 19.3685 18.4043 19.6328 18.1373C19.8971 17.8703 20.2554 17.7203 20.6291 17.7203C21.0028 17.7203 21.3612 17.8703 21.6254 18.1373C21.8897 18.4043 22.0381 18.7664 22.0381 19.144V15.822C22.0381 15.4444 22.1866 15.0823 22.4508 14.8153C22.7151 14.5483 23.0734 14.3983 23.4471 14.3983C23.8208 14.3983 24.1792 14.5483 24.4435 14.8153C24.7077 15.0823 24.8562 15.4444 24.8562 15.822V13.9237C24.8562 13.5461 25.0046 13.184 25.2689 12.917C25.5331 12.65 25.8915 12.5 26.2651 12.5C26.6388 12.5 26.9972 12.65 27.2615 12.917C27.5257 13.184 27.6742 13.5461 27.6742 13.9237V15.822C27.6742 15.4444 27.8226 15.0823 28.0869 14.8153C28.3511 14.5483 28.7095 14.3983 29.0832 14.3983C29.4569 14.3983 29.8153 14.5483 30.0795 14.8153C30.3437 15.0823 30.4922 15.4444 30.4922 15.822V23.6591H30.5053C30.5037 23.4408 30.5448 23.2243 30.6263 23.022C30.7078 22.8198 30.8282 22.6359 30.9803 22.4809C31.1326 22.3258 31.3136 22.2028 31.5131 22.1188C31.7126 22.0348 31.9266 21.9915 32.1426 21.9915C32.5768 21.9915 32.9933 22.1658 33.3003 22.476C33.6074 22.7863 33.7799 23.2071 33.7799 23.6459V32.3173C33.7799 33.106 33.6262 33.8871 33.3274 34.6157C33.0287 35.3444 32.5908 36.0065 32.0388 36.5642L31.8176 36.7878C31.2986 37.3122 30.6906 37.7381 30.0225 38.0454V40.4999" stroke="var(--stroke-0, white)" stroke-width="1.55998" stroke-linecap="round" stroke-linejoin="round"/>
<path id="Vector_3" d="M27.674 15.822V27.9907" stroke="var(--stroke-0, white)" stroke-width="1.55998" stroke-linecap="round" stroke-linejoin="round"/>
<path id="Vector_4" d="M22.0375 18.1949V27.9299" stroke="var(--stroke-0, white)" stroke-width="1.55998" stroke-linecap="round" stroke-linejoin="round"/>
<path id="Vector_5" d="M24.8563 27.3823V15.822" stroke="var(--stroke-0, white)" stroke-width="1.55998" stroke-linecap="round" stroke-linejoin="round"/>
<path id="Vector_6" d="M30.492 23.8899V28.6356L29.3347 29.8049C28.2714 30.8794 27.6741 32.3365 27.674 33.8559" stroke="var(--stroke-0, white)" stroke-width="1.55998" stroke-linecap="round" stroke-linejoin="round"/>
</g>
</svg>
