<svg preserveAspectRatio="none" width="100%" height="100%" overflow="visible" style="display: block;" viewBox="0 0 53 53" fill="none" xmlns="http://www.w3.org/2000/svg">
<rect width="53" height="53" rx="8" fill="white"/>
<g id="Icon">
<path id="Vector" d="M37.9161 31.8923L33.1307 36.7574C29.7698 40.1741 28.6219 40.1179 25.3026 36.7574L17.5989 28.9254C14.9158 26.1976 14.238 24.3837 17.5989 20.9669L22.3843 16.1019C25.9664 12.4601 27.5293 13.3741 30.2124 16.1019L37.9161 23.9338C41.2216 27.3084 41.4982 28.2505 37.9161 31.8923ZM16.5754 33.6217L17.4882 35.1544C18.7745 37.3338 17.7787 39.1196 15.2753 39.1196C12.772 39.1196 11.7762 37.3338 13.0624 35.1544L13.9753 33.6217C14.6945 32.4125 15.8701 32.4125 16.5754 33.6217Z" stroke="var(--stroke-0, black)" stroke-width="1.78572" stroke-linecap="round" stroke-linejoin="round"/>
<path id="Vector_2" d="M40.1668 27.8474C32.8335 22.7951 26.8335 28.521 16.5382 26.3501L15.8335 26.5" stroke="var(--stroke-0, black)" stroke-width="1.78572" stroke-linecap="round" stroke-linejoin="round"/>
</g>
</svg>
